<mxfile host="app.diagrams.net" modified="2021-04-21T07:02:39.012Z" agent="5.0 (Windows NT 10.0; WOW64) AppleWebKit/537.36 (KHTML, like Gecko) Chrome/75.0.3770.100 Safari/537.36" etag="oZMePPvWqmdNwnrnir86" version="14.6.3" type="github">
  <diagram name="Page-1" id="74e2e168-ea6b-b213-b513-2b3c1d86103e">
    <mxGraphModel dx="1152" dy="633" grid="1" gridSize="10" guides="1" tooltips="1" connect="1" arrows="1" fold="1" page="1" pageScale="1" pageWidth="1100" pageHeight="850" background="#ffffff" math="0" shadow="0">
      <root>
        <mxCell id="0" />
        <mxCell id="1" parent="0" />
        <mxCell id="XYtB5xydwukB0OOToyl5-8" style="edgeStyle=orthogonalEdgeStyle;rounded=0;orthogonalLoop=1;jettySize=auto;html=1;exitX=1;exitY=0.5;exitDx=0;exitDy=0;entryX=0;entryY=0.5;entryDx=0;entryDy=0;" edge="1" parent="1" source="XYtB5xydwukB0OOToyl5-5" target="XYtB5xydwukB0OOToyl5-6">
          <mxGeometry relative="1" as="geometry" />
        </mxCell>
        <mxCell id="XYtB5xydwukB0OOToyl5-5" value="开始" style="ellipse;whiteSpace=wrap;html=1;" vertex="1" parent="1">
          <mxGeometry x="190" y="247.5" width="90" height="50" as="geometry" />
        </mxCell>
        <mxCell id="XYtB5xydwukB0OOToyl5-10" style="edgeStyle=orthogonalEdgeStyle;rounded=0;orthogonalLoop=1;jettySize=auto;html=1;exitX=1;exitY=0.5;exitDx=0;exitDy=0;entryX=0;entryY=0.5;entryDx=0;entryDy=0;" edge="1" parent="1" source="XYtB5xydwukB0OOToyl5-6" target="XYtB5xydwukB0OOToyl5-9">
          <mxGeometry relative="1" as="geometry" />
        </mxCell>
        <mxCell id="XYtB5xydwukB0OOToyl5-6" value="前期调研" style="rounded=0;whiteSpace=wrap;html=1;" vertex="1" parent="1">
          <mxGeometry x="350" y="242.5" width="120" height="60" as="geometry" />
        </mxCell>
        <mxCell id="XYtB5xydwukB0OOToyl5-12" style="edgeStyle=orthogonalEdgeStyle;rounded=0;orthogonalLoop=1;jettySize=auto;html=1;exitX=1;exitY=0.5;exitDx=0;exitDy=0;entryX=0;entryY=0.5;entryDx=0;entryDy=0;" edge="1" parent="1" source="XYtB5xydwukB0OOToyl5-9" target="XYtB5xydwukB0OOToyl5-11">
          <mxGeometry relative="1" as="geometry" />
        </mxCell>
        <mxCell id="XYtB5xydwukB0OOToyl5-9" value="原系统调研报告" style="shape=document;whiteSpace=wrap;html=1;boundedLbl=1;" vertex="1" parent="1">
          <mxGeometry x="540" y="240" width="120" height="65" as="geometry" />
        </mxCell>
        <mxCell id="XYtB5xydwukB0OOToyl5-21" style="edgeStyle=orthogonalEdgeStyle;rounded=0;orthogonalLoop=1;jettySize=auto;html=1;exitX=0.5;exitY=1;exitDx=0;exitDy=0;" edge="1" parent="1" source="XYtB5xydwukB0OOToyl5-11" target="XYtB5xydwukB0OOToyl5-14">
          <mxGeometry relative="1" as="geometry" />
        </mxCell>
        <mxCell id="XYtB5xydwukB0OOToyl5-11" value="数据整理" style="rounded=0;whiteSpace=wrap;html=1;" vertex="1" parent="1">
          <mxGeometry x="730" y="242.5" width="120" height="60" as="geometry" />
        </mxCell>
        <mxCell id="XYtB5xydwukB0OOToyl5-20" value="" style="edgeStyle=orthogonalEdgeStyle;rounded=0;orthogonalLoop=1;jettySize=auto;html=1;" edge="1" parent="1" source="XYtB5xydwukB0OOToyl5-14" target="XYtB5xydwukB0OOToyl5-18">
          <mxGeometry relative="1" as="geometry" />
        </mxCell>
        <mxCell id="XYtB5xydwukB0OOToyl5-14" value="数据分析报告" style="shape=document;whiteSpace=wrap;html=1;boundedLbl=1;" vertex="1" parent="1">
          <mxGeometry x="730" y="347.5" width="120" height="65" as="geometry" />
        </mxCell>
        <mxCell id="XYtB5xydwukB0OOToyl5-23" style="edgeStyle=orthogonalEdgeStyle;rounded=0;orthogonalLoop=1;jettySize=auto;html=1;exitX=0;exitY=0.5;exitDx=0;exitDy=0;entryX=1;entryY=0.5;entryDx=0;entryDy=0;" edge="1" parent="1" source="XYtB5xydwukB0OOToyl5-18" target="XYtB5xydwukB0OOToyl5-22">
          <mxGeometry relative="1" as="geometry" />
        </mxCell>
        <mxCell id="XYtB5xydwukB0OOToyl5-18" value="数据转换" style="rounded=0;whiteSpace=wrap;html=1;" vertex="1" parent="1">
          <mxGeometry x="540" y="350" width="120" height="60" as="geometry" />
        </mxCell>
        <mxCell id="XYtB5xydwukB0OOToyl5-25" style="edgeStyle=orthogonalEdgeStyle;rounded=0;orthogonalLoop=1;jettySize=auto;html=1;exitX=0;exitY=0.5;exitDx=0;exitDy=0;entryX=1;entryY=0.5;entryDx=0;entryDy=0;" edge="1" parent="1" source="XYtB5xydwukB0OOToyl5-22" target="XYtB5xydwukB0OOToyl5-24">
          <mxGeometry relative="1" as="geometry" />
        </mxCell>
        <mxCell id="XYtB5xydwukB0OOToyl5-22" value="数据转换报告" style="shape=document;whiteSpace=wrap;html=1;boundedLbl=1;" vertex="1" parent="1">
          <mxGeometry x="360" y="347.5" width="120" height="65" as="geometry" />
        </mxCell>
        <mxCell id="XYtB5xydwukB0OOToyl5-27" style="edgeStyle=orthogonalEdgeStyle;rounded=0;orthogonalLoop=1;jettySize=auto;html=1;exitX=0.5;exitY=1;exitDx=0;exitDy=0;entryX=0.5;entryY=0;entryDx=0;entryDy=0;" edge="1" parent="1" source="XYtB5xydwukB0OOToyl5-24" target="XYtB5xydwukB0OOToyl5-26">
          <mxGeometry relative="1" as="geometry" />
        </mxCell>
        <mxCell id="XYtB5xydwukB0OOToyl5-24" value="前期调研" style="rounded=0;whiteSpace=wrap;html=1;" vertex="1" parent="1">
          <mxGeometry x="180" y="350" width="120" height="60" as="geometry" />
        </mxCell>
        <mxCell id="XYtB5xydwukB0OOToyl5-29" style="edgeStyle=orthogonalEdgeStyle;rounded=0;orthogonalLoop=1;jettySize=auto;html=1;exitX=1;exitY=0.5;exitDx=0;exitDy=0;entryX=0;entryY=0.5;entryDx=0;entryDy=0;" edge="1" parent="1" source="XYtB5xydwukB0OOToyl5-26" target="XYtB5xydwukB0OOToyl5-28">
          <mxGeometry relative="1" as="geometry" />
        </mxCell>
        <mxCell id="XYtB5xydwukB0OOToyl5-26" value="运行监控" style="rounded=0;whiteSpace=wrap;html=1;" vertex="1" parent="1">
          <mxGeometry x="180" y="457.5" width="120" height="60" as="geometry" />
        </mxCell>
        <mxCell id="XYtB5xydwukB0OOToyl5-31" style="edgeStyle=orthogonalEdgeStyle;rounded=0;orthogonalLoop=1;jettySize=auto;html=1;exitX=1;exitY=0.5;exitDx=0;exitDy=0;entryX=0;entryY=0.5;entryDx=0;entryDy=0;" edge="1" parent="1" source="XYtB5xydwukB0OOToyl5-28" target="XYtB5xydwukB0OOToyl5-30">
          <mxGeometry relative="1" as="geometry" />
        </mxCell>
        <mxCell id="XYtB5xydwukB0OOToyl5-28" value="新老系统、终端运行报告" style="rounded=0;whiteSpace=wrap;html=1;" vertex="1" parent="1">
          <mxGeometry x="350" y="457.5" width="120" height="60" as="geometry" />
        </mxCell>
        <mxCell id="XYtB5xydwukB0OOToyl5-30" value="结束" style="ellipse;whiteSpace=wrap;html=1;" vertex="1" parent="1">
          <mxGeometry x="550" y="462.5" width="90" height="50" as="geometry" />
        </mxCell>
      </root>
    </mxGraphModel>
  </diagram>
</mxfile>
